<svg viewBox="0 0 24 24" fill="currentColor" xmlns="http://www.w3.org/2000/svg" id="icon" height="24" width="24"  stroke-width="1"> 
  <path fill-rule="evenodd" clip-rule="evenodd" d="M4.43057 10.5119c0.26957 -0.3145 0.74304 -0.3509 1.05754 -0.0813L12 16.0122l6.5119 -5.5816c0.3145 -0.2696 0.788 -0.2332 1.0576 0.0813 0.2695 0.3145 0.2331 0.788 -0.0814 1.0575l-7 6c-0.2809 0.2408 -0.6953 0.2408 -0.9762 0l-6.99998 -6c-0.31449 -0.2695 -0.35092 -0.743 -0.08135 -1.0575Z"></path>
  <path d="M5.00005 6.25c-0.31386 0 -0.59452 0.19543 -0.70341 0.48979 -0.1089 0.29436 -0.02298 0.6254 0.21532 0.82965L11.512 13.5694c0.2808 0.2408 0.6953 0.2408 0.9761 0l7 -5.99996c0.2383 -0.20425 0.3243 -0.53529 0.2154 -0.82965C19.5946 6.44543 19.3139 6.25 19 6.25H5.00005Z"></path>
</svg>