<svg viewBox="0 0 24 24" fill="currentColor" xmlns="http://www.w3.org/2000/svg" id="icon" height="24" width="24" stroke-width="1">
  <path fill-rule="evenodd" clip-rule="evenodd" d="M4.43057 13.4881c0.26957 0.3145 0.74304 0.3509 1.05754 0.0813L12 7.98781l6.5119 5.58159c0.3145 0.2696 0.788 0.2332 1.0576 -0.0813 0.2695 -0.3145 0.2331 -0.788 -0.0814 -1.0575l-7 -6.00004c-0.2809 -0.24075 -0.6953 -0.24075 -0.9762 0L4.51192 12.4306c-0.31449 0.2695 -0.35092 0.743 -0.08135 1.0575Z"></path>
  <path d="M5.00005 17.75c-0.31386 0 -0.59452 -0.1954 -0.70341 -0.4898 -0.1089 -0.2944 -0.02298 -0.6254 0.21532 -0.8296l7.00004 -6c0.2808 -0.2408 0.6953 -0.2408 0.9761 0l7 6c0.2383 0.2042 0.3243 0.5352 0.2154 0.8296 -0.1089 0.2944 -0.3896 0.4898 -0.7035 0.4898H5.00005Z" ></path>
</svg>