<svg id="icon" xmlns="http://www.w3.org/2000/svg" fill="none" viewBox="0 0 24 24" height="24" width="24">
  <path fill="currentColor" d="M2 5.375V1h4.375v1.5H3.5v2.875H2Zm18.5 0V2.5h-2.875V1H22v4.375h-1.5ZM2 23v-4.375h1.5V21.5h2.875v1.5H2Zm15.625 0v-1.5H20.5v-2.875h1.5V23h-4.375ZM6.5 18.5h11V5.5H6.5v13Zm0 1.5c-0.4 0 -0.75 -0.15 -1.05 -0.45 -0.3 -0.3 -0.45 -0.65 -0.45 -1.05V5.5c0 -0.4 0.15 -0.75 0.45 -1.05 0.3 -0.3 0.65 -0.45 1.05 -0.45h11c0.4 0 0.75 0.15 1.05 0.45 0.3 0.3 0.45 0.65 0.45 1.05v13c0 0.4 -0.15 0.75 -0.45 1.05 -0.3 0.3 -0.65 0.45 -1.05 0.45H6.5Zm2.75 -10.25h5.5v-1.5h-5.5v1.5Zm0 3h5.5v-1.5h-5.5v1.5Zm0 3h5.5v-1.5h-5.5v1.5Z" stroke-width="0.5"></path>
</svg>