<svg id="icon" xmlns="http://www.w3.org/2000/svg" fill="none" viewBox="0 0 24 24" height="100%" width="100%">
  <path fill="currentColor" d="M3 21V3h6.625c0.08335 -0.583335 0.35 -1.0625 0.8 -1.4375C10.875 1.1875 11.4 1 12 1s1.125 0.1875 1.575 0.5625c0.45 0.375 0.71665 0.854165 0.8 1.4375H21v9.725c-0.23335 -0.13335 -0.47915 -0.24165 -0.7375 -0.325 -0.25835 -0.08335 -0.5125 -0.15 -0.7625 -0.2V4.5H4.5v15h7.725c0.06665 0.26665 0.14185 0.5264 0.2255 0.77925 0.08385 0.25285 0.18365 0.4931 0.2995 0.72075H3Zm1.5 -2.675V19.5v7.7ZM7 17h5.275c0.06665 -0.26665 0.14165 -0.525 0.225 -0.775 0.08335 -0.25 0.19165 -0.49165 0.325 -0.725H7v1.5Zm0 -4.25h8.6c0.23335 -0.11665 0.45835 -0.2125 0.675 -0.2875 0.21665 -0.075 0.45835 -0.14585 0.725 -0.2125v-1H7v1.5Zm0 -4.25h10v-1.5H7v1.5Zm5 -4.425c0.23335 0 0.4375 -0.0875 0.6125 -0.2625 0.175 -0.175 0.2625 -0.379165 0.2625 -0.6125 0 -0.233335 -0.0875 -0.4375 -0.2625 -0.6125 -0.175 -0.175 -0.37915 -0.2625 -0.6125 -0.2625 -0.23335 0 -0.4375 0.0875 -0.6125 0.2625 -0.175 0.175 -0.2625 0.379165 -0.2625 0.6125 0 0.233335 0.0875 0.4375 0.2625 0.6125 0.175 0.175 0.37915 0.2625 0.6125 0.2625Zm6.3125 18.9c-1.29165 0 -2.39585 -0.4625 -3.3125 -1.3875 -0.91665 -0.925 -1.375 -2.02085 -1.375 -3.2875 0 -1.30715 0.45825 -2.4215 1.37475 -3.343 0.9165 -0.92135 2.0249 -1.382 3.32525 -1.382 1.28335 0 2.3875 0.46065 3.3125 1.382 0.925 0.9215 1.3875 2.03585 1.3875 3.343 0 1.26665 -0.4625 2.3625 -1.3875 3.2875 -0.925 0.925 -2.03335 1.3875 -3.325 1.3875Zm-0.3625 -1.5h0.825v-2.75h2.75V17.9h-2.75v-2.75H17.95v2.75h-2.75v0.825h2.75v2.75Z" stroke-width="0.5"></path>
</svg>