<svg xmlns="http://www.w3.org/2000/svg" viewBox="0 0 16 16" id="icon" height="16" width="16" stroke-width="0.6667">
  <g transform="translate(16 0) rotate(90)">
    <g fill="none" fill-rule="nonzero">
      <path d="M16 0v16H0V0h16ZM8.395333333333333 15.505333333333333l-0.007333333333333332 0.0013333333333333333 -0.047333333333333324 0.023333333333333334 -0.013333333333333332 0.0026666666666666666 -0.009333333333333332 -0.0026666666666666666 -0.047333333333333324 -0.023333333333333334c-0.006666666666666666 -0.0026666666666666666 -0.012666666666666666 -0.0006666666666666666 -0.016 0.003333333333333333l-0.0026666666666666666 0.006666666666666666 -0.011333333333333334 0.2853333333333333 0.003333333333333333 0.013333333333333332 0.006666666666666666 0.008666666666666666 0.06933333333333333 0.049333333333333326 0.009999999999999998 0.0026666666666666666 0.008 -0.0026666666666666666 0.06933333333333333 -0.049333333333333326 0.008 -0.010666666666666666 0.0026666666666666666 -0.011333333333333334 -0.011333333333333334 -0.2846666666666666c-0.0013333333333333333 -0.006666666666666666 -0.005999999999999999 -0.011333333333333334 -0.011333333333333334 -0.011999999999999999Zm0.17666666666666667 -0.07533333333333334 -0.008666666666666666 0.0013333333333333333 -0.12333333333333332 0.062 -0.006666666666666666 0.006666666666666666 -0.002 0.007333333333333332 0.011999999999999999 0.2866666666666666 0.003333333333333333 0.008 0.005333333333333333 0.004666666666666666 0.134 0.062c0.008 0.0026666666666666666 0.015333333333333332 0 0.019333333333333334 -0.005333333333333333l0.0026666666666666666 -0.009333333333333332 -0.02266666666666667 -0.4093333333333333c-0.002 -0.008 -0.006666666666666666 -0.013333333333333332 -0.013333333333333332 -0.014666666666666665Zm-0.4766666666666666 0.0013333333333333333a0.015333333333333332 0.015333333333333332 0 0 0 -0.018 0.004l-0.004 0.009333333333333332 -0.02266666666666667 0.4093333333333333c0 0.008 0.004666666666666666 0.013333333333333332 0.011333333333333334 0.016l0.009999999999999998 -0.0013333333333333333 0.134 -0.062 0.006666666666666666 -0.005333333333333333 0.0026666666666666666 -0.007333333333333332 0.011333333333333334 -0.2866666666666666 -0.002 -0.008 -0.006666666666666666 -0.006666666666666666 -0.12266666666666666 -0.06133333333333333Z"></path>
      <path fill="currentColor" d="M8.528666666666666 2.1146666666666665a0.6666666666666666 0.6666666666666666 0 0 1 0.998 0.88l-0.05533333333333333 0.06266666666666666 -0.27599999999999997 0.27599999999999997H10.666666666666666a2 2 0 0 1 1.9966666666666666 1.8826666666666665L12.666666666666666 5.333333333333333v4.779999999999999A2.0006666666666666 2.0006666666666666 0 0 1 12 14a2 2 0 0 1 -0.7813333333333332 -3.841333333333333L11.333333333333332 10.113333333333333V5.333333333333333a0.6666666666666666 0.6666666666666666 0 0 0 -0.5886666666666667 -0.6619999999999999L10.666666666666666 4.666666666666666h-1.4713333333333332l0.27599999999999997 0.27599999999999997a0.6666666666666666 0.6666666666666666 0 0 1 -0.88 0.9986666666666666l-0.06266666666666666 -0.056 -1.414 -1.4133333333333333a0.6666666666666666 0.6666666666666666 0 0 1 -0.056 -0.8806666666666666l0.056 -0.06266666666666666 1.4133333333333333 -1.414ZM4 2a2 2 0 0 1 0.7813333333333332 3.841333333333333L4.666666666666666 5.886666666666667v4.228A2.0006666666666666 2.0006666666666666 0 0 1 4 14a2 2 0 0 1 -0.7813333333333332 -3.841333333333333L3.333333333333333 10.113333333333333V5.886A2.0006666666666666 2.0006666666666666 0 0 1 4 2Z"></path>
    </g>
  </g>
</svg>
