<svg id="icon" xmlns="http://www.w3.org/2000/svg" fill="none" stroke="currentColor" stroke-linecap="round" stroke-linejoin="round"  stroke-width="1" viewBox="0 0 14 14" height="100%" width="100%">
  <g id="hard-drive">
    <path d="M12.5 7.5h-11c-0.552285 0 -1 0.44772 -1 1v4c0 0.5523 0.447715 1 1 1h11c0.5523 0 1 -0.4477 1 -1v-4c0 -0.55228 -0.4477 -1 -1 -1Z"></path>
    <path d="m0.590027 8.08005 1.740003 -6.8c0.04972 -0.2205 0.17269 -0.417658 0.34885 -0.559309 0.17615 -0.141652 0.39511 -0.219442 0.62115 -0.220686H10.7c0.2312 -0.00565 0.4572 0.068984 0.6395 0.211199 0.1823 0.142214 0.3097 0.343216 0.3605 0.568796l1.74 6.8"></path>
    <path d="M3.5 10.5h3"></path>
    <path d="M10.5 11c0.2761 0 0.5 -0.2239 0.5 -0.5s-0.2239 -0.5 -0.5 -0.5 -0.5 0.2239 -0.5 0.5 0.2239 0.5 0.5 0.5Z"></path>
  </g>
</svg>