<svg viewBox="0 0 16 16" fill="currentColor" xmlns="http://www.w3.org/2000/svg" id="icon" height="16" width="16">
  <path d="M6.585786666666666 7.9978 5.041433333333333 6.453446666666666C4.72148 6.589313333333333 4.369513333333333 6.664466666666667 4 6.664466666666667c-1.47276 0 -2.6666666666666665 -1.1939066666666664 -2.6666666666666665 -2.6666666666666665s1.1939066666666664 -2.6666666666666665 2.6666666666666665 -2.6666666666666665 2.6666666666666665 1.1939066666666664 2.6666666666666665 2.6666666666666665c0 0.36951999999999996 -0.07516 0.7214799999999999 -0.21101999999999999 1.0414333333333332L8 6.583586666666666l4.249599999999999 -4.249573333333333c0.5206666666666666 -0.5206999999999999 1.3648666666666665 -0.5206999999999999 1.8855999999999997 0l0.47139999999999993 0.47139999999999993L6.4556466666666665 10.956399999999999c0.13585999999999998 0.3199333333333333 0.21101999999999999 0.6718666666666666 0.21101999999999999 1.0413999999999999 0 1.4727333333333332 -1.1939066666666664 2.6666666666666665 -2.6666666666666665 2.6666666666666665s-2.6666666666666665 -1.1939333333333333 -2.6666666666666665 -2.6666666666666665c0 -1.4727333333333332 1.1939066666666664 -2.6666666666666665 2.6666666666666665 -2.6666666666666665 0.36951333333333336 0 0.7214799999999999 0.07513333333333333 1.0414333333333332 0.211l1.5443533333333335 -1.5443333333333333ZM4 5.331133333333333c0.73638 0 1.3333333333333333 -0.5969533333333332 1.3333333333333333 -1.3333333333333333s-0.5969533333333332 -1.3333333333333333 -1.3333333333333333 -1.3333333333333333 -1.3333333333333333 0.5969533333333332 -1.3333333333333333 1.3333333333333333 0.5969533333333332 1.3333333333333333 1.3333333333333333 1.3333333333333333Zm0 8c0.73638 0 1.3333333333333333 -0.5969333333333333 1.3333333333333333 -1.3333333333333333s-0.5969533333333332 -1.3333333333333333 -1.3333333333333333 -1.3333333333333333 -1.3333333333333333 0.5969333333333333 -1.3333333333333333 1.3333333333333333 0.5969533333333332 1.3333333333333333 1.3333333333333333 1.3333333333333333Zm6.356399999999999 -4.391133333333333 4.2501999999999995 4.2501999999999995 -0.47139999999999993 0.47139999999999993c-0.5207333333333333 0.5206666666666666 -1.3649333333333333 0.5206666666666666 -1.8855999999999997 0l-3.3074 -3.3074 1.4142000000000001 -1.4142000000000001ZM10.666666666666666 7.331133333333334h1.3333333333333333v1.3333333333333333h-1.3333333333333333v-1.3333333333333333Zm2.6666666666666665 0h1.3333333333333333v1.3333333333333333h-1.3333333333333333v-1.3333333333333333Zm-9.333333333333332 0h1.3333333333333333v1.3333333333333333H4v-1.3333333333333333Zm-2.6666666666666665 0h1.3333333333333333v1.3333333333333333H1.3333333333333333v-1.3333333333333333Z" stroke-width="0.6667"></path>
</svg>