<svg id="icon" xmlns="http://www.w3.org/2000/svg" viewBox="0 0 24 24" fill="none" stroke="currentColor" stroke-linecap="round" stroke-linejoin="round" stroke-width="2" height="24" width="24">
  <path d="M12 6a2 2 0 1 0 4 0 2 2 0 1 0 -4 0"></path>
  <path d="m4 6 8 0"></path>
  <path d="m16 6 4 0"></path>
  <path d="M6 12a2 2 0 1 0 4 0 2 2 0 1 0 -4 0"></path>
  <path d="m4 12 2 0"></path>
  <path d="m10 12 10 0"></path>
  <path d="M15 18a2 2 0 1 0 4 0 2 2 0 1 0 -4 0"></path>
  <path d="m4 18 11 0"></path>
  <path d="m19 18 1 0"></path>
</svg>