<svg xmlns="http://www.w3.org/2000/svg" viewBox="0 0 16 16" fill="currentColor" id="icon" height="16" width="16">
  <path d="M14.15965625 9.67990625c0 0.30925 -0.25071875 0.55995625 -0.55996875 0.55996875h-5.03971875v2.239875h1.67990625c0.4310625 -0.0003375 0.70084375 0.4660875 0.48560625 0.83956875 -0.0245625 0.04261875 -0.05463125 0.0818125 -0.08943125 0.116575l-2.239875 2.239875c-0.21873125 0.218975 -0.57361875 0.218975 -0.79235625 0l-2.23986875 -2.239875c-0.30498125 -0.3046375 -0.1658125 -0.8251875 0.25050625 -0.9369875 0.0475 -0.01275625 0.09648125 -0.01919375 0.14566875 -0.01915625h1.67990625v-2.239875H2.4003125c-0.4310625 -0.00045625 -0.69998125 -0.46738125 -0.48405625 -0.84046875 0.1 -0.17278125 0.284425 -0.27925625 0.48405625 -0.27946875h11.199375c0.30925 0.0000125 0.55996875 0.25071875 0.55996875 0.55996875ZM2.4003125 6.8800625h11.199375c0.4310625 -0.00045625 0.69998125 -0.46738125 0.48405625 -0.8404625 -0.1 -0.1727875 -0.284425 -0.2792625 -0.48405625 -0.279475h-5.03971875V3.52025h1.67990625c0.4310625 0.0003375 0.70084375 -0.4660875 0.48560625 -0.83956875 -0.0245625 -0.04261875 -0.05463125 -0.0818125 -0.08943125 -0.116575l-2.239875 -2.239875c-0.21873125 -0.218975 -0.57361875 -0.218975 -0.79235625 0l-2.23986875 2.239875c-0.30498125 0.3046375 -0.1658125 0.8251875 0.25050625 0.9369875 0.0475 0.01275625 0.09648125 0.01919375 0.14566875 0.01915625h1.67990625v2.239875H2.4003125c-0.4310625 0.00045625 -0.69998125 0.46738125 -0.48405625 0.84046875 0.1 0.17278125 0.284425 0.27925625 0.48405625 0.27946875Z" stroke-width="0.0625"></path>
</svg>