<svg xmlns="http://www.w3.org/2000/svg" fill="currentColor" viewBox="0 0 16 16" id="icon" height="16" width="16">
  <g transform="translate(16 0) scale(-1 1)">
    <path d="M0.16 1.28c0 -0.6194999999999999 0.5005 -1.1199999999999999 1.1199999999999999 -1.1199999999999999h13.44c0.6194999999999999 0 1.1199999999999999 0.5005 1.1199999999999999 1.1199999999999999S15.339499999999997 2.4 14.72 2.4H1.28c-0.6194999999999999 0 -1.1199999999999999 -0.5005 -1.1199999999999999 -1.1199999999999999Zm6.72 4.4799999999999995c0 -0.6194999999999999 0.5005 -1.1199999999999999 1.1199999999999999 -1.1199999999999999h6.72c0.6194999999999999 0 1.1199999999999999 0.5005 1.1199999999999999 1.1199999999999999s-0.5005 1.1199999999999999 -1.1199999999999999 1.1199999999999999H8c-0.6194999999999999 0 -1.1199999999999999 -0.5005 -1.1199999999999999 -1.1199999999999999ZM8 9.12h6.72c0.6194999999999999 0 1.1199999999999999 0.5005 1.1199999999999999 1.1199999999999999s-0.5005 1.1199999999999999 -1.1199999999999999 1.1199999999999999H8c-0.6194999999999999 0 -1.1199999999999999 -0.5005 -1.1199999999999999 -1.1199999999999999s0.5005 -1.1199999999999999 1.1199999999999999 -1.1199999999999999ZM0.16 14.72c0 -0.6194999999999999 0.5005 -1.1199999999999999 1.1199999999999999 -1.1199999999999999h13.44c0.6194999999999999 0 1.1199999999999999 0.5005 1.1199999999999999 1.1199999999999999s-0.5005 1.1199999999999999 -1.1199999999999999 1.1199999999999999H1.28c-0.6194999999999999 0 -1.1199999999999999 -0.5005 -1.1199999999999999 -1.1199999999999999Zm4.473 -6.279 -3.5699999999999994 2.7754999999999996c-0.36749999999999994 0.287 -0.9029999999999999 0.0245 -0.9029999999999999 -0.441V5.2245c0 -0.4655 0.5355 -0.728 0.9029999999999999 -0.441l3.5664999999999996 2.7754999999999996c0.287 0.224 0.287 0.6614999999999999 0 0.8855Z" stroke-width="0.0357"></path>
  </g>
</svg>
